<?xml version="1.0" encoding="UTF-8" standalone="no"?>
<svg
   width="28"
   height="28"
   viewBox="0 0 28 28"
   fill="none"
   version="1.1"
   id="svg4"
   sodipodi:docname="ball.svg"
   inkscape:version="1.1 (c4e8f9ed74, 2021-05-24)"
   xmlns:inkscape="http://www.inkscape.org/namespaces/inkscape"
   xmlns:sodipodi="http://sodipodi.sourceforge.net/DTD/sodipodi-0.dtd"
   xmlns="http://www.w3.org/2000/svg"
   xmlns:svg="http://www.w3.org/2000/svg">
  <defs
     id="defs8" />
  <sodipodi:namedview
     id="namedview6"
     pagecolor="#ffffff"
     bordercolor="#666666"
     borderopacity="1.0"
     inkscape:pageshadow="2"
     inkscape:pageopacity="0.0"
     inkscape:pagecheckerboard="0"
     showgrid="false"
     inkscape:zoom="38.85"
     inkscape:cx="9.98713"
     inkscape:cy="10"
     inkscape:window-width="1920"
     inkscape:window-height="1015"
     inkscape:window-x="1368"
     inkscape:window-y="32"
     inkscape:window-maximized="1"
     inkscape:current-layer="svg4" />
  <path
     fill-rule="evenodd"
     clip-rule="evenodd"
     d="M 14,4 C 8.4794,4 4,8.4794 4,14 4,19.5206 8.4794,24 14,24 19.5098,24 24,19.5206 24,14 24,8.4794 19.5098,4 14,4 Z m 6.6052,4.60954 c 1.1931,1.45336 1.9089,3.30804 1.9306,5.31454 -0.282,-0.05424 -3.102,-0.62906 -5.9436,-0.27116 -0.0651,-0.14098 -0.1193,-0.29284 -0.1844,-0.44468 -0.1735,-0.41214 -0.3688,-0.83514 -0.564,-1.23644 3.1454,-1.27982 4.577,-3.12364 4.7614,-3.36226 z M 14,5.47505 c 2.1692,0 4.154,0.81345 5.6616,2.14751 -0.1518,0.21692 -1.4425,1.94144 -4.4794,3.08026 -1.39912,-2.5705 -2.9501,-4.67462 -3.1887,-5 C 12.6334,5.55098 13.30586,5.47505 14,5.47505 Z m -3.6334,0.80261 c 0.22776,0.30368 1.7462,2.41866 3.16702,4.93492 C 9.5423,12.27548 6.01736,12.2538 5.63774,12.2538 6.19088,9.60738 7.98048,7.40564 10.3666,6.27766 Z M 5.45336,14.0108 c 0,-0.08672 0,-0.17348 0,-0.26026 0.36877,0.01084 4.51194,0.06508 8.77444,-1.21474 0.2494,0.47722 0.4772,0.96528 0.6941,1.45336 -0.1085,0.03254 -0.2278,0.06504 -0.3362,0.09764 -4.40348,1.4208 -6.74622,5.3037 -6.94144,5.629 -1.35576,-1.5076 -2.1909,-3.5141 -2.1909,-5.705 z M 14,22.5466 c -1.97396,0 -3.7961,-0.6724 -5.23862,-1.8004 0.15186,-0.3145 1.88722,-3.6551 6.70282,-5.3362 0.0217,-0.0109 0.0325,-0.0109 0.0542,-0.0217 1.2039,3.1128 1.692,5.7267 1.8222,6.475 C 16.3102,22.308 15.1822,22.5466 14,22.5466 Z m 4.7614,-1.4642 c -0.0868,-0.5206 -0.5423,-3.0152 -1.6594,-6.0846 2.6789,-0.423 5.0216,0.2712 5.3145,0.3688 -0.3688,2.3753 -1.7354,4.4252 -3.6551,5.7158 z"
     fill="#aaaaaa"
     id="path2" />
</svg>
