<?xml version="1.0" encoding="UTF-8" standalone="no"?>
<svg
   width="28"
   height="28"
   viewBox="0 0 28 28"
   fill="none"
   version="1.1"
   id="svg136"
   sodipodi:docname="github-back.svg"
   inkscape:version="1.1 (c4e8f9ed74, 2021-05-24)"
   xmlns:inkscape="http://www.inkscape.org/namespaces/inkscape"
   xmlns:sodipodi="http://sodipodi.sourceforge.net/DTD/sodipodi-0.dtd"
   xmlns="http://www.w3.org/2000/svg"
   xmlns:svg="http://www.w3.org/2000/svg">
  <defs
     id="defs140" />
  <sodipodi:namedview
     id="namedview138"
     pagecolor="#ffffff"
     bordercolor="#666666"
     borderopacity="1.0"
     inkscape:pageshadow="2"
     inkscape:pageopacity="0.0"
     inkscape:pagecheckerboard="0"
     showgrid="false"
     showguides="false"
     inkscape:zoom="13.875"
     inkscape:cx="2.4864865"
     inkscape:cy="9.1891892"
     inkscape:window-width="1920"
     inkscape:window-height="1015"
     inkscape:window-x="1368"
     inkscape:window-y="32"
     inkscape:window-maximized="1"
     inkscape:current-layer="svg136" />
  <rect
     width="28"
     height="28"
     rx="4"
     fill="#24292E"
     id="rect134" />
  <path
     fill-rule="evenodd"
     clip-rule="evenodd"
     d="M 13.99908,4 C 8.47773,4 4,8.59042 4,14.2534 c 0,4.529999 2.86504,8.372599 6.83876,9.728399 0.50032,0.0944 0.68265,-0.2222 0.68265,-0.4941 0,-0.2436 -0.0086,-0.8881 -0.01351,-1.7435 -2.78154,0.6194 -3.36842,-1.3747 -3.36842,-1.3747 -0.4549,-1.1845 -1.11054,-1.4999 -1.11054,-1.4999 -0.90794,-0.6357 0.06876,-0.6231 0.06876,-0.6231 1.00372,0.0724 1.53166,1.0568 1.53166,1.0568 0.89199,1.5666 2.34077,1.1141 2.91047,0.8516 0.09085,-0.6622 0.3493,-1.1141 0.63476,-1.3703 -2.22045,-0.2587 -4.55508,-1.1386 -4.55508,-5.067489 0,-1.11912 0.38982,-2.03494 1.0295,-2.75123 -0.10314,-0.25932 -0.4463,-1.30228 0.09822,-2.71346 0,0 0.83919,-0.27569 2.74962,1.05114 0.79745,-0.22785 1.65322,-0.34115 2.50345,-0.34555 0.8496,0.0044 1.7048,0.1177 2.5035,0.34555 1.9092,-1.32683 2.7471,-1.05114 2.7471,-1.05114 0.5458,1.41118 0.2026,2.45414 0.1001,2.71346 0.6409,0.71629 1.0276,1.63211 1.0276,2.75123 0,3.938989 -2.3383,4.805689 -4.5655,5.059389 0.3585,0.3166 0.6784,0.9422 0.6784,1.8983 0,1.3709 -0.0123,2.4768 -0.0123,2.8129 0,0.2745 0.1805,0.5936 0.6876,0.4935 C 21.1374,22.622299 24,18.782099 24,14.2534 24,8.59042 19.5223,4 13.99908,4 Z"
     fill="#ffffff"
     id="path66" />
</svg>
