<?xml version="1.0" encoding="UTF-8" standalone="no"?>
<svg
   width="28"
   height="28"
   viewBox="0 0 28 28"
   fill="none"
   version="1.1"
   id="svg4"
   sodipodi:docname="Rectangle 21.svg"
   inkscape:version="1.1 (c4e8f9ed74, 2021-05-24)"
   xmlns:inkscape="http://www.inkscape.org/namespaces/inkscape"
   xmlns:sodipodi="http://sodipodi.sourceforge.net/DTD/sodipodi-0.dtd"
   xmlns="http://www.w3.org/2000/svg"
   xmlns:svg="http://www.w3.org/2000/svg">
  <defs
     id="defs8" />
  <sodipodi:namedview
     id="namedview6"
     pagecolor="#ffffff"
     bordercolor="#666666"
     borderopacity="1.0"
     inkscape:pageshadow="2"
     inkscape:pageopacity="0.0"
     inkscape:pagecheckerboard="0"
     showgrid="false"
     inkscape:zoom="27.75"
     inkscape:cx="13.981982"
     inkscape:cy="14"
     inkscape:window-width="1920"
     inkscape:window-height="1015"
     inkscape:window-x="1368"
     inkscape:window-y="32"
     inkscape:window-maximized="1"
     inkscape:current-layer="svg4" />
  <rect
     width="28"
     height="28"
     rx="4"
     fill="#E6528A"
     id="rect2" />
  <path
     fill-rule="evenodd"
     clip-rule="evenodd"
     d="M 14,4 C 8.4794,4 4,8.4794003 4,14 4,19.5206 8.4794,24 14,24 19.5098,24 24,19.5206 24,14 24,8.4794003 19.5098,4 14,4 Z m 6.6052,4.6095403 C 21.7983,10.0629 22.5141,11.91758 22.5358,13.92408 22.2538,13.86984 19.4338,13.29502 16.5922,13.65292 16.5271,13.51194 16.4729,13.36008 16.4078,13.20824 16.2343,12.7961 16.039,12.3731 15.8438,11.9718 18.9892,10.69198 20.4208,8.8481603 20.6052,8.6095403 Z M 14,5.47505 c 2.1692,0 4.154,0.81345 5.6616,2.14751 -0.1518,0.21692 -1.4425,1.9414403 -4.4794,3.08026 -1.39912,-2.5705 -2.9501,-4.67462 -3.1887,-5 C 12.6334,5.55098 13.30586,5.47505 14,5.47505 Z m -3.6334,0.80261 c 0.22776,0.30368 1.7462,2.4186603 3.16702,4.93492 C 9.5423,12.27548 6.01736,12.2538 5.63774,12.2538 6.19088,9.6073803 7.98048,7.40564 10.3666,6.27766 Z M 5.45336,14.0108 c 0,-0.08672 0,-0.17348 0,-0.26026 0.36877,0.01084 4.51194,0.06508 8.77444,-1.21474 0.2494,0.47722 0.4772,0.96528 0.6941,1.45336 -0.1085,0.03254 -0.2278,0.06504 -0.3362,0.09764 -4.40348,1.4208 -6.74622,5.3037 -6.94144,5.629 -1.35576,-1.5076 -2.1909,-3.5141 -2.1909,-5.705 z M 14,22.5466 c -1.97396,0 -3.7961,-0.6724 -5.23862,-1.8004 0.15186,-0.3145 1.88722,-3.6551 6.70282,-5.3362 0.0217,-0.0109 0.0325,-0.0109 0.0542,-0.0217 1.2039,3.1128 1.692,5.7267 1.8222,6.475 C 16.3102,22.308 15.1822,22.5466 14,22.5466 Z m 4.7614,-1.4642 c -0.0868,-0.5206 -0.5423,-3.0152 -1.6594,-6.0846 2.6789,-0.423 5.0216,0.2712 5.3145,0.3688 -0.3688,2.3753 -1.7354,4.4252 -3.6551,5.7158 z"
     fill="#ffffff"
     id="path2" />
</svg>
