<?xml version="1.0" encoding="UTF-8" standalone="no"?>
<svg
   width="28"
   height="28"
   viewBox="0 0 28 28"
   fill="none"
   version="1.1"
   id="svg4"
   sodipodi:docname="Rectangle 22.svg"
   inkscape:version="1.1 (c4e8f9ed74, 2021-05-24)"
   xmlns:inkscape="http://www.inkscape.org/namespaces/inkscape"
   xmlns:sodipodi="http://sodipodi.sourceforge.net/DTD/sodipodi-0.dtd"
   xmlns="http://www.w3.org/2000/svg"
   xmlns:svg="http://www.w3.org/2000/svg">
  <defs
     id="defs8" />
  <sodipodi:namedview
     id="namedview6"
     pagecolor="#ffffff"
     bordercolor="#666666"
     borderopacity="1.0"
     inkscape:pageshadow="2"
     inkscape:pageopacity="0.0"
     inkscape:pagecheckerboard="0"
     showgrid="false"
     inkscape:zoom="27.75"
     inkscape:cx="13.981982"
     inkscape:cy="14"
     inkscape:window-width="1920"
     inkscape:window-height="1015"
     inkscape:window-x="1368"
     inkscape:window-y="32"
     inkscape:window-maximized="1"
     inkscape:current-layer="svg4" />
  <rect
     width="28"
     height="28"
     rx="4"
     fill="#33A4EC"
     id="rect2" />
  <g
     id="g16"
     transform="translate(4,3.9785153)">
    <path
       d="M 18.9698,4.44416 C 19.2122,9.0639 16.8569,13.4329 12.8644,15.7697 8.87188,18.1064 3.90922,18.0205 0,15.5469 2.21583,15.6926 4.4074,15.0148 6.15408,13.6436 4.45561,13.4412 3.02432,12.2813 2.47432,10.6617 3.13114,10.7672 3.80328,10.7239 4.44109,10.5348 2.40726,10.1521 0.907341,8.41535 0.824773,6.34748 1.38897,6.57368 1.99359,6.68165 2.60121,6.6647 0.851762,5.31132 0.364873,2.87688 1.45921,0.954734 3.66101,3.67383 6.91118,5.33349 10.4048,5.52271 9.80649,3.57832 10.6697,1.48257 12.4639,0.52362 14.258,-0.435334 16.4801,0.0113747 17.7644,1.58918 18.7364,1.41472 19.6639,1.04804 20.4924,0.510626 20.1768,1.54022 19.4709,2.4055 18.5257,2.9215 19.3848,2.83456 20.2221,2.59839 21,2.22362 20.6271,3.19307 19.902,3.98607 18.9698,4.44416 Z"
       fill="#ffffff"
       id="path2" />
  </g>
</svg>
